<?xml version="1.0" encoding="UTF-8"?>
<!-- Created with Inkscape (http://www.inkscape.org/) -->
<svg width="386.09mm" height="184.72mm" version="1.1" viewBox="0 0 386.09 184.72" xml:space="preserve" xmlns="http://www.w3.org/2000/svg"><defs><marker id="TriangleStart" overflow="visible" markerHeight="6.155385" markerWidth="5.3244081" orient="auto-start-reverse" preserveAspectRatio="xMidYMid" viewBox="0 0 5.3244081 6.1553851"><path transform="scale(.5)" d="m5.77 0-8.65 5v-10z" fill="context-stroke" fill-rule="evenodd" stroke="context-stroke" stroke-width="1pt"/></marker><linearGradient id="f" x1="407.97" x2="326.67" y1="103.25" y2="997.56" gradientTransform="matrix(.26458 0 0 .26458 -38.19 48.015)" gradientUnits="userSpaceOnUse"><stop stop-color="#fff" offset="0"/><stop stop-color="#fff" stop-opacity="0" offset="1"/></linearGradient><linearGradient id="e" x1="326.38" x2="406.02" y1="409.46" y2="463.62" gradientTransform="matrix(.26458 0 0 .26458 -38.19 48.015)" gradientUnits="userSpaceOnUse"><stop stop-color="#FBB040" offset="0"/><stop stop-color="#FB8840" offset="1"/></linearGradient><linearGradient id="d" x1="399.25" x2="382.43" y1="514.94" y2="273.84" gradientTransform="matrix(.26458 0 0 .26458 -38.19 48.015)" gradientUnits="userSpaceOnUse"><stop stop-color="#FF6533" offset="0"/><stop stop-color="#FF5633" offset=".157"/><stop stop-color="#FF4333" offset=".434"/><stop stop-color="#FF3733" offset=".714"/><stop stop-color="#F33" offset="1"/></linearGradient><linearGradient id="c" x1="297.31" x2="353.38" y1="413.59" y2="472.47" gradientTransform="matrix(.26458 0 0 .26458 -38.19 48.015)" gradientUnits="userSpaceOnUse"><stop stop-color="#FF6533" offset="0"/><stop stop-color="#FF5633" offset=".157"/><stop stop-color="#FF4333" offset=".434"/><stop stop-color="#FF3733" offset=".714"/><stop stop-color="#F33" offset="1"/></linearGradient><linearGradient id="b" x1="284.69" x2="671.57" y1="354.5" y2="654.47" gradientTransform="matrix(.26458 0 0 .26458 -38.19 48.015)" gradientUnits="userSpaceOnUse"><stop stop-color="#BF3338" offset="0"/><stop stop-color="#F33" offset="1"/></linearGradient><linearGradient id="a" x1="318.45" x2="534.32" y1="426.06" y2="476.52" gradientTransform="matrix(.26458 0 0 .26458 -38.19 48.015)" gradientUnits="userSpaceOnUse"><stop stop-color="#FF6533" offset="0"/><stop stop-color="#FF5633" offset=".157"/><stop stop-color="#FF4333" offset=".434"/><stop stop-color="#FF3733" offset=".714"/><stop stop-color="#F33" offset="1"/></linearGradient><marker id="TriangleStart-9" overflow="visible" markerHeight="6.155385" markerWidth="5.3244081" orient="auto-start-reverse" preserveAspectRatio="xMidYMid" viewBox="0 0 5.3244081 6.1553851"><path transform="scale(.5)" d="m5.77 0-8.65 5v-10z" fill="context-stroke" fill-rule="evenodd" stroke="context-stroke" stroke-width="1pt"/></marker><marker id="TriangleStart-6" overflow="visible" markerHeight="6.155385" markerWidth="5.3244081" orient="auto-start-reverse" preserveAspectRatio="xMidYMid" viewBox="0 0 5.3244081 6.1553851"><path transform="scale(.5)" d="m5.77 0-8.65 5v-10z" fill="context-stroke" fill-rule="evenodd" stroke="context-stroke" stroke-width="1pt"/></marker><marker id="TriangleStart-6-2" overflow="visible" markerHeight="6.155385" markerWidth="5.3244081" orient="auto-start-reverse" preserveAspectRatio="xMidYMid" viewBox="0 0 5.3244081 6.1553851"><path transform="scale(.5)" d="m5.77 0-8.65 5v-10z" fill="context-stroke" fill-rule="evenodd" stroke="context-stroke" stroke-width="1pt"/></marker><marker id="TriangleStart-6-9" overflow="visible" markerHeight="6.155385" markerWidth="5.3244081" orient="auto-start-reverse" preserveAspectRatio="xMidYMid" viewBox="0 0 5.3244081 6.1553851"><path transform="scale(.5)" d="m5.77 0-8.65 5v-10z" fill="context-stroke" fill-rule="evenodd" stroke="context-stroke" stroke-width="1pt"/></marker><marker id="TriangleStart-6-2-0" overflow="visible" markerHeight="6.155385" markerWidth="5.3244081" orient="auto-start-reverse" preserveAspectRatio="xMidYMid" viewBox="0 0 5.3244081 6.1553851"><path transform="scale(.5)" d="m5.77 0-8.65 5v-10z" fill="context-stroke" fill-rule="evenodd" stroke="context-stroke" stroke-width="1pt"/></marker><marker id="TriangleStart-6-2-0-9-6" overflow="visible" markerHeight="6.155385" markerWidth="5.3244081" orient="auto-start-reverse" preserveAspectRatio="xMidYMid" viewBox="0 0 5.3244081 6.1553851"><path transform="scale(.5)" d="m5.77 0-8.65 5v-10z" fill="context-stroke" fill-rule="evenodd" stroke="context-stroke" stroke-width="1pt"/></marker><marker id="TriangleStart-6-2-0-9-6-1" overflow="visible" markerHeight="6.155385" markerWidth="5.3244081" orient="auto-start-reverse" preserveAspectRatio="xMidYMid" viewBox="0 0 5.3244081 6.1553851"><path transform="scale(.5)" d="m5.77 0-8.65 5v-10z" fill="context-stroke" fill-rule="evenodd" stroke="context-stroke" stroke-width="1pt"/></marker><marker id="TriangleStart-6-2-0-9-6-1-7" overflow="visible" markerHeight="6.155385" markerWidth="5.3244081" orient="auto-start-reverse" preserveAspectRatio="xMidYMid" viewBox="0 0 5.3244081 6.1553851"><path transform="scale(.5)" d="m5.77 0-8.65 5v-10z" fill="context-stroke" fill-rule="evenodd" stroke="context-stroke" stroke-width="1pt"/></marker><marker id="TriangleStart-6-2-0-9-6-1-1" overflow="visible" markerHeight="6.155385" markerWidth="5.3244081" orient="auto-start-reverse" preserveAspectRatio="xMidYMid" viewBox="0 0 5.3244081 6.1553851"><path transform="scale(.5)" d="m5.77 0-8.65 5v-10z" fill="context-stroke" fill-rule="evenodd" stroke="context-stroke" stroke-width="1pt"/></marker></defs><rect x=".05" y=".05" width="385.99" height="184.62" fill="#fff" stroke="#000" stroke-linecap="round" stroke-linejoin="round" stroke-width=".1" style="paint-order:stroke markers fill"/><rect x="194.5" y="155.75" width="73.826" height="20.79" fill="#ececec" style="paint-order:stroke markers fill"/><rect x="195.1" y="35.353" width="73.826" height="39.307" fill="#ececec" style="paint-order:stroke markers fill"/><rect x="195.28" y="79.769" width="73.826" height="39.307" fill="none" stroke="#000" stroke-dasharray="2, 4" stroke-linecap="round" stroke-linejoin="round" style="paint-order:fill markers stroke"/><g transform="translate(-56.935 -63.351)"><rect x="252.73" y="189.51" width="73.826" height="23.329" fill="#ececec" style="paint-order:stroke markers fill"/><rect x="65.32" y="190.19" width="79.567" height="23.329" fill="#ececec" style="paint-order:stroke markers fill"/><path d="m218.72 95.16c-2.6198-0.70333-4.6399-2.5603-5.6057-5.153-0.24624-0.66107-0.32723-1.1566-0.3733-2.2843l-0.0588-1.4401 0.29531 0.43828c0.45461 0.67471 1.5609 1.1743 2.6192 1.1828l0.84726 7e-3 0.0719 0.44942c0.0396 0.24718 0.21357 0.60228 0.38671 0.7891 0.17314 0.18683 0.31481 0.3826 0.31481 0.43505 0 0.0524-0.23063 0.47776-0.51251 0.94512-0.60688 1.0062-0.59665 1.3303 0.0717 2.2704 0.63638 0.89508 1.3213 1.1707 1.885 0.75847 0.21244-0.15534 0.28063-0.14103 0.59709 0.12526 0.42093 0.35419 0.77298 0.45917 1.3537 0.40369 0.33282-0.0318 0.43312-0.10276 0.46522-0.32917 0.0537-0.37918-0.18387-0.65053-0.56967-0.65053-0.18587 0-0.48094-0.1707-0.73601-0.42577-0.46878-0.46878-0.54453-0.95719-0.29041-1.8724l0.13394-0.48239 0.53926 0.0809c0.2966 0.0445 1.0011 0.0819 1.5655 0.0831l1.0262 2e-3 0.1919 0.45927c0.14628 0.35009 0.17185 0.68896 0.10759 1.4256-0.10058 1.153 0.0224 1.4808 0.55581 1.4808 0.21037 0 0.50056 0.1258 0.68545 0.29715l0.32063 0.29715-0.61611 0.26504c-1.0846 0.46661-2.012 0.64371-3.3257 0.63509-0.69147-5e-3 -1.5672-0.0914-1.946-0.19314zm6.7436-1.5596c-0.43137-0.24141-0.97788-2.0253-0.811-2.6472 0.0443-0.16529 0.3979-0.50077 0.83104-0.78856 0.49164-0.32668 0.83608-0.66684 0.99026-0.97796 0.13002-0.26239 0.27331-0.41736 0.31842-0.34437 0.13037 0.21096 0.50621 0.15483 0.86779-0.12958 0.47206-0.37132 0.82882-1.1393 0.94566-2.0356 0.0957-0.734 0.10112-0.70886 0.11625 0.53679 0.0186 1.535-0.2034 2.573-0.80908 3.7821-0.66418 1.3259-2.0675 2.8181-2.4493 2.6044zm-7.6514-1.0527c-0.12053-0.16575-0.21557-0.43165-0.21121-0.59087 8e-3 -0.28823 8e-3 -0.28812 0.13275 0.0235 0.0686 0.17215 0.24394 0.43982 0.38956 0.59481 0.18943 0.20164 0.21401 0.2807 0.0864 0.27789-0.0981-2e-3 -0.27698-0.13956-0.3975-0.30532zm-3.5113-5.7703c-0.85788-0.27479-1.1158-0.72882-1.0425-1.8355 0.14591-2.2039 2.6876-4.6996 5.5193-5.4194 0.97929-0.24893 2.9036-0.24284 3.9415 0.0125 2.137 0.52569 4.1999 2.1852 5.2102 4.1914 0.23808 0.47277 0.43287 0.93419 0.43287 1.0254 0 0.26424-0.77017 0.47635-1.4108 0.38854-0.40526-0.0556-0.6787-0.18581-0.92106-0.43877-0.62402-0.65134-0.9515-0.39512-1.2222 0.95626l-0.14268 0.71228-1.6916 2e-3c-1.1564 2e-3 -2.0011-0.0662-2.6697-0.215-1.2072-0.26859-1.9851-0.18525-2.9483 0.31589-0.88987 0.463-2.1629 0.58962-3.055 0.30385z" fill="#5778d8" stroke-width=".12522"/></g><g transform="matrix(.079124 0 0 .079124 312.1 59.099)" stroke-width=".26458"><path d="m148.63 117.7c0-12.461-3.2636-24.144-9.0122-34.269-15.243-15.688-48.399-19.323-56.633-0.07435-8.4561 19.731 14.204 41.687 24.107 39.943 12.61-2.2251-2.2254-31.154-2.2254-31.154 19.285 36.346 14.835 25.22-20.027 58.599s-70.466 103.81-75.659 106.78c-0.22251 0.14843-0.44503 0.25982-0.70485 0.37094h136.74c2.4106 0 3.9685-2.559 2.893-4.7101l-35.753-70.763c-0.77867-1.5206-0.22252-3.4121 1.261-4.2651 20.917-12.016 35.011-34.566 35.011-60.453z" fill="url(#a)"/><path d="m148.63 117.7c0-12.461-3.2636-24.144-9.0122-34.269-15.243-15.688-48.399-19.323-56.633-0.07435-8.4561 19.731 14.204 41.687 24.107 39.943 12.61-2.2251-2.2254-31.154-2.2254-31.154 19.285 36.346 14.835 25.22-20.027 58.599s-70.466 103.81-75.659 106.78c-0.22251 0.14843-0.44503 0.25982-0.70485 0.37094h136.74c2.4106 0 3.9685-2.559 2.893-4.7101l-35.753-70.763c-0.77867-1.5206-0.22252-3.4121 1.261-4.2651 20.917-12.016 35.011-34.566 35.011-60.453z" fill="url(#b)"/><path d="m9.1759 257.52c5.1924-2.967 40.797-73.434 75.659-106.81 34.862-33.379 39.313-22.253 20.027-58.599 0 0-73.804 103.47-100.51 154.66" fill="url(#c)"/><path d="m19.561 164.8c49.846-91.644 56.373-100.88 82.335-100.88 13.648 0 27.408 6.1566 36.309 17.098-12.128-19.545-33.602-32.637-58.191-33.008h-84.671c-1.7804 0-3.2269 1.4464-3.2269 3.2266v170.68c5.044-13.018 13.611-31.636 27.445-57.115z" fill="url(#d)"/><path d="m84.835 150.71c-34.863 33.379-70.467 103.85-75.659 106.81-5.1922 2.967-13.908 3.3377-18.544-1.8545-4.9326-5.5261-12.61-14.464 28.928-90.865 49.846-91.643 56.373-100.88 82.335-100.88 13.648 0 27.408 6.1566 36.309 17.097 0.48207 0.77893 0.96414 1.5946 1.4465 2.4106-15.243-15.688-48.399-19.323-56.633-0.07408-8.4561 19.731 14.205 41.686 24.107 39.943 12.61-2.2251-2.2251-31.154-2.2251-31.154 19.248 36.309 14.798 25.183-20.064 58.561z" fill="url(#e)"/><path d="m23.64 168.88c49.846-91.644 56.373-100.88 82.335-100.88 11.237 0 22.549 4.1909 31.154 11.757-8.9011-10.162-22.104-15.836-35.233-15.836-25.961 0-32.489 9.2348-82.335 100.88-41.538 76.401-33.861 85.339-28.928 90.865 0.70485 0.77894 1.5206 1.4465 2.3736 2.0029-4.3392-6.305-6.2677-20.955 30.635-88.788z" fill="url(#f)" opacity=".3"/></g><g transform="matrix(.25168 0 0 .25168 281.48 53.969)" stroke-width=".26458"><path d="m141.62 265.28c-0.36519-0.13721-6.3685-3.5756-16.272-9.3195-2.1828-1.266-6.6477-3.8308-9.9219-5.6995s-6.2323-3.646-6.5736-3.9496c-1.4121-1.2562-1.3639-0.49899-1.3639-21.451v-19.47l0.99218-1.0405c0.59223-0.62104 3.0187-2.1989 6.0193-3.9142 7.7294-4.4185 22.396-12.89 24.679-14.255 1.525-0.91171 2.3948-1.2536 3.4256-1.3467 1.3118-0.11839 1.5324-0.0383 4.3656 1.5851 3.1328 1.795 17.256 9.9445 21.108 12.18 1.2369 0.71781 3.6182 2.0865 5.2917 3.0415 3.3196 1.8945 4.3072 2.6717 4.7484 3.7367 0.2021 0.48791 0.2675 6.5009 0.21766 20.011l-0.0713 19.314-0.59612 0.83573c-0.42681 0.59836-3.4326 2.4731-10.583 6.6008-5.493 3.1708-11.833 6.8345-14.088 8.1415-7.9572 4.611-9.078 5.1871-10.054 5.168-0.50932-0.01-1.1046-0.0851-1.3229-0.16716z" fill="#76d04b"/><path d="m121.83 248.75c-0.34562-0.55923-0.47008-29.902-0.13118-30.928 0.19655-0.59556 0.66007-1.1277 1.3579-1.559 0.58271-0.36014 1.0286-0.7157 0.99079-0.79014-0.0378-0.0744-0.38665-0.73916-0.77528-1.4772-1.0021-1.9029-1.572-4.3488-1.6255-6.9758-0.0507-2.4923 0.28376-5.8376 0.58368-5.8376 0.10494 0 0.46461 0.56555 0.79926 1.2568 2.0699 4.2753 5.5435 7.3834 8.7971 7.8713 1.1809 0.17708 1.3405 0.10941 5.8701-2.4886 2.5609-1.4689 4.9318-2.6707 5.2687-2.6707s2.6923 1.1901 5.2342 2.6447 4.868 2.6452 5.169 2.6458c1.1454 2e-3 3.2463-0.82361 4.6484-1.8276 1.7118-1.2258 3.3504-3.263 4.7238-5.873 1.185-2.2519 1.2534-2.1414 1.5002 2.4256 0.19323 3.5748-0.22809 5.9876-1.5239 8.7273-0.75539 1.5971-0.77722 1.7256-0.3351 1.9729 0.26011 0.14552 0.80496 0.58285 1.2108 0.97183l0.73785 0.70726v15.345c0 8.4395-0.0723 15.533-0.16059 15.763-0.0883 0.23019-0.43221 0.41852-0.76418 0.41852-0.6327 0-11.521-6.0616-12.437-6.9238-0.50013-0.47072-0.53643-0.93288-0.66146-8.4233l-0.13229-7.9252-0.66146-0.6489c-1.053-1.033-5.713-3.5954-6.5386-3.5954-0.8405 0-6.0316 2.8724-6.7567 3.7388-0.41681 0.49798-0.46396 1.3096-0.4724 8.1307-7e-3 5.7191-0.094 7.73-0.35429 8.1994-0.41083 0.74081-11.915 7.4401-12.784 7.4448-0.31883 2e-3 -0.66911-0.14159-0.7784-0.31842z" fill="#4f4d3f"/></g><path d="m211.34 104.63c-0.10968-0.0559-0.25362-0.17557-0.31987-0.26587-0.11996-0.16352-0.1205-0.19111-0.13529-6.8335-0.0139-6.2619-9e-3 -6.6815 0.0872-6.8687 0.0561-0.10967 0.17596-0.25361 0.26625-0.31986 0.16109-0.1182 0.22886-0.12074 3.6291-0.13634l3.465-0.0159 0.87808 0.85887c2.2283 2.1795 2.9846 2.905 3.1462 3.0181l0.17447 0.12206v5.0055c0 4.9712-1e-3 5.0067-0.12045 5.1697-0.0662 0.0903-0.21018 0.20995-0.31986 0.26588-0.18544 0.0945-0.56245 0.10168-5.3754 0.10168-4.813 0-5.19-7e-3 -5.3754-0.10168zm10.348-5.2195v-4.5072h-1.8255c-1.7104 0-1.8342-7e-3 -1.9628-0.11111l-0.1373-0.11112-0.0338-3.6744h-5.9855v12.911h9.9449zm-0.59127-5.3696c-0.0107-0.0265-0.47737-0.47544-1.0371-0.99757-0.55977-0.52213-1.1159-1.0422-1.2358-1.1558l-0.21808-0.20647v2.4081h1.2552c0.69037 0 1.2465-0.0217 1.2358-0.0482z" stroke-width=".058157"/><path d="m211.34 62.119c-0.10968-0.0559-0.25362-0.17557-0.31987-0.26587-0.11996-0.16352-0.1205-0.19111-0.13529-6.8335-0.0139-6.2619-9e-3 -6.6815 0.0872-6.8687 0.0561-0.10967 0.17596-0.25361 0.26625-0.31986 0.16109-0.1182 0.22886-0.12074 3.6291-0.13634l3.465-0.0159 0.87808 0.85887c2.2283 2.1795 2.9846 2.905 3.1462 3.0181l0.17447 0.12206v5.0055c0 4.9712-1e-3 5.0067-0.12045 5.1697-0.0662 0.0903-0.21018 0.20995-0.31986 0.26588-0.18544 0.0945-0.56245 0.10168-5.3754 0.10168-4.813 0-5.19-7e-3 -5.3754-0.10168zm10.348-5.2195v-4.5072h-1.8255c-1.7104 0-1.8342-7e-3 -1.9628-0.11111l-0.1373-0.11112-0.0338-3.6744h-5.9855v12.911h9.9449zm-0.59127-5.3696c-0.0107-0.0265-0.47737-0.47544-1.0371-0.99757-0.55977-0.52213-1.1159-1.0422-1.2358-1.1558l-0.21808-0.20647v2.4081h1.2552c0.69037 0 1.2465-0.0217 1.2358-0.0482z" stroke-width=".058157"/><g stroke-linecap="round" stroke-linejoin="round"><g transform="translate(-56.935 -63.351)"><g font-family="Impact" font-size="7.3519px" stroke-width="4.6311"><text x="254.08458" y="105.04693" style="paint-order:stroke markers fill" xml:space="preserve"><tspan x="254.08458" y="105.04693" fill="#000000" font-family="sans-serif" stroke-width="4.6311">plugins/</tspan></text><text x="254.59186" y="197.7336" style="paint-order:stroke markers fill" xml:space="preserve"><tspan x="254.59186" y="197.7336" fill="#000000" font-family="sans-serif" stroke-width="4.6311">tiddlers/</tspan></text><text x="254.59921" y="226.02802" style="paint-order:stroke markers fill" xml:space="preserve"><tspan x="254.59921" y="226.02802" fill="#000000" font-family="sans-serif" stroke-width="4.6311">files/</tspan></text><text x="254.33453" y="149.94002" style="paint-order:stroke markers fill" xml:space="preserve"><tspan x="254.33453" y="149.94002" fill="#000000" font-family="sans-serif" stroke-width="4.6311">src/</tspan></text><text x="261.23544" y="132.36069" style="paint-order:stroke markers fill" xml:space="preserve"><tspan x="261.23544" y="132.36069" fill="#000000" font-family="sans-serif" stroke-width="4.6311">clock.js</tspan></text><text x="261.07004" y="175.33681" style="paint-order:stroke markers fill" xml:space="preserve"><tspan x="261.07004" y="175.33681" fill="#000000" font-family="sans-serif" stroke-width="4.6311">main.js</tspan></text><text x="264.35257" y="208.62126" style="paint-order:stroke markers fill" xml:space="preserve"><tspan x="264.35257" y="208.62126" fill="#000000" font-family="sans-serif" stroke-width="4.6311">reloader.js</tspan></text><text x="262.58145" y="235.1077" style="paint-order:stroke markers fill" xml:space="preserve"><tspan x="262.58145" y="235.1077" fill="#000000" font-family="sans-serif" stroke-width="4.6311">timestamps.json</tspan></text><text x="357.61523" y="190.58821" style="paint-order:stroke markers fill" xml:space="preserve"><tspan x="357.61523" y="190.58821" fill="#000000" font-family="sans-serif" stroke-width="4.6311">nodemon</tspan></text><text x="335.4534" y="172.43832" style="paint-order:stroke markers fill" xml:space="preserve"><tspan x="335.4534" y="172.43832" fill="#000000" font-family="sans-serif" stroke-width="4.6311">watch</tspan></text><text x="334.91492" y="116.88834" style="paint-order:stroke markers fill" xml:space="preserve"><tspan x="334.91492" y="116.88834" fill="#000000" font-family="sans-serif" stroke-width="4.6311">bundle</tspan></text><text x="394.45322" y="133.89153" style="paint-order:stroke markers fill" xml:space="preserve"><tspan x="394.45322" y="133.89153" fill="#000000" font-family="sans-serif" stroke-width="4.6311">execute</tspan></text><text x="393.16684" y="229.43445" style="paint-order:stroke markers fill" xml:space="preserve"><tspan x="393.16684" y="229.43445" fill="#000000" font-family="sans-serif" stroke-width="4.6311">update</tspan></text><text x="396.40134" y="96.459595" style="paint-order:stroke markers fill" xml:space="preserve"><tspan x="396.40134" y="96.459595" fill="#000000" font-family="sans-serif" stroke-width="4.6311">restart</tspan></text><text x="227.201" y="118.07375" style="paint-order:stroke markers fill" xml:space="preserve"><tspan x="227.201" y="118.07375" fill="#000000" font-family="sans-serif" stroke-width="4.6311">serve</tspan></text><text x="227.93132" y="199.19922" style="paint-order:stroke markers fill" xml:space="preserve"><tspan x="227.93132" y="199.19922" fill="#000000" font-family="sans-serif" stroke-width="4.6311">serve</tspan></text></g><text x="162.9702" y="199.32021" font-family="Impact" font-size="4.6739px" stroke-width="2.9442" style="paint-order:stroke markers fill" xml:space="preserve"><tspan x="162.9702" y="199.32021" fill="#000000" font-family="sans-serif" stroke-width="2.9442">Execute by browser</tspan></text><g font-size="7.3519px" stroke-width="4.6311"><g font-family="Impact"><text x="227.55229" y="228.20615" style="paint-order:stroke markers fill" xml:space="preserve"><tspan x="227.55229" y="228.20615" fill="#000000" font-family="sans-serif" stroke-width="4.6311">serve</tspan></text><text x="174.20567" y="226.7159" style="paint-order:stroke markers fill" xml:space="preserve"><tspan x="174.20567" y="226.7159" fill="#000000" font-family="sans-serif" stroke-width="4.6311">polling</tspan></text><text x="100.24365" y="140.77606" style="paint-order:stroke markers fill" xml:space="preserve"><tspan x="100.24365" y="140.77606" fill="#000000" font-family="sans-serif" stroke-width="4.6311">reload page</tspan></text><text x="363.29825" y="150.56825" style="paint-order:stroke markers fill" xml:space="preserve"><tspan x="363.29825" y="150.56825" fill="#000000" font-family="sans-serif" stroke-width="4.6311">Rollup</tspan></text><text x="220.62537" y="76.232521" text-align="center" text-anchor="middle" style="paint-order:stroke markers fill" xml:space="preserve"><tspan x="220.62537" y="76.232521" fill="#000000" font-family="sans-serif" stroke-width="4.6311" text-align="center" text-anchor="middle">Tiddlywiki Server</tspan></text><text x="151.54494" y="75.724388" text-align="center" text-anchor="middle" style="paint-order:stroke markers fill" xml:space="preserve"><tspan x="151.54494" y="75.724388" fill="#000000" font-family="sans-serif" stroke-width="4.6311" text-align="center" text-anchor="middle">Browser</tspan></text></g><text x="68.101913" y="199.22012" font-family="sans-serif" style="paint-order:stroke markers fill" xml:space="preserve"><tspan x="68.101913" y="199.22012">$:/development-tool/</tspan><tspan x="68.101913" y="209.09698">reloader.js</tspan></text></g></g><g transform="translate(-56.935 -63.351)" fill="#f9f9f9" stroke="#000" stroke-dasharray="2, 4"><path d="m361.53 174.59h-30.396" marker-end="url(#TriangleStart)" style="paint-order:fill markers stroke"/><path d="m249.16 119.52h-24.635" marker-end="url(#TriangleStart-6)" style="paint-order:fill markers stroke"/><path d="m249.23 230.26h-24.635" marker-end="url(#TriangleStart-6-9)" style="paint-order:fill markers stroke"/><path d="m249.66 201.59h-24.635" marker-end="url(#TriangleStart-6-2)" style="paint-order:fill markers stroke"/></g><g transform="translate(-56.935 -63.351)" fill="none" stroke="#000" stroke-dasharray="2, 4"><path d="m97.757 189.36v-100.62h34.379" marker-end="url(#TriangleStart-6-2-0-9-6)" style="paint-order:fill markers stroke"/><path d="m386.92 168.87h31.624v-32.472h-28.187" marker-end="url(#TriangleStart-6-2-0-9-6-1)" style="paint-order:fill markers stroke"/><path d="m386.92 179.64h38.472v52.491h-95.434" marker-end="url(#TriangleStart-6-2-0-9-6-1-1)" style="paint-order:fill markers stroke"/><path d="m386.92 174.15h38.442v-85.417h-190.91" marker-end="url(#TriangleStart-6-2-0-9-6-1-7)" style="paint-order:fill markers stroke"/></g></g><path d="m84.595 32.611c-0.30102-0.11584-0.57965-0.39871-0.69415-0.70474l-0.0883-0.23607 0.0214-14.488 0.12169-0.21972c0.15175-0.27397 0.38015-0.47258 0.66681-0.57983 0.21949-0.08216 0.2831-0.08261 9.2899-0.07209l9.0689 0.0106 0.21971 0.1217c0.27369 0.15159 0.47256 0.3801 0.57947 0.66585 0.0813 0.21726 0.0823 0.3109 0.0823 7.3921s-8.9e-4 7.1748-0.0823 7.3921c-0.10691 0.28575-0.30578 0.51426-0.57947 0.66585l-0.21971 0.12169-18.163 0.016zm18.412-0.76666 0.15934-0.15933-0.0208-11.182-18.636-0.02068 0.0214 11.228 0.10249 0.11028c0.0564 0.06068 0.13941 0.12555 0.18451 0.14421 0.0451 0.01862 4.1202 0.03511 9.0557 0.03654l8.9737 0.0027zm-9.929-0.62098c-0.14758-0.02058-0.43356-0.0851-0.63551-0.14328-3.0366-0.87495-4.5272-4.2613-3.1127-7.0715 0.48096-0.95557 1.299-1.7689 2.2649-2.2517 1.1076-0.55363 2.5173-0.6521 3.7576-0.26245 1.5972 0.50177 2.8747 1.86 3.3106 3.5199 0.11892 0.45289 0.12915 0.54453 0.1327 1.1878 4e-3 0.73054-0.0475 1.1004-0.22853 1.64-0.46005 1.3714-1.5148 2.4963-2.8652 3.056-0.55644 0.23061-1.0554 0.33018-1.7405 0.34732-0.33825 8e-3 -0.73576-0.0018-0.88335-0.0221zm0.37084-1.6797v-0.90202l-0.21525-8.91e-4c-0.11838-5.25e-4 -0.35219-0.01907-0.51957-0.04081s-0.31334-0.03048-0.32434-0.01951c-0.0351 0.03511 0.19561 0.68516 0.3657 1.0304 0.15115 0.30677 0.56612 0.83515 0.65591 0.83515 0.0217 0 0.0376-0.38308 0.0376-0.90202zm0.98831 0.69648c0.21166-0.22545 0.50081-0.75451 0.66768-1.2217 0.13644-0.38199 0.13961-0.47709 0.0148-0.44371-0.0507 0.01355-0.29059 0.03698-0.53301 0.05195l-0.44075 0.02727v0.89585c0 0.66904 0.0125 0.89585 0.0492 0.89585 0.027 0 0.13599-0.09249 0.24212-0.20554zm-2.0953 0.06345c0-0.01051-0.0634-0.13503-0.14106-0.27675-0.17929-0.32749-0.35739-0.79154-0.47575-1.2396l-0.0927-0.35081-0.16801-0.04402c-0.63179-0.16544-1.1412-0.35883-1.4952-0.56766-0.12112-0.07147-0.226-0.12412-0.23305-0.11707-0.034 0.03395 0.24049 0.59203 0.4416 0.89778 0.44461 0.67592 1.0242 1.1908 1.7307 1.5376 0.35023 0.17187 0.43348 0.2027 0.43348 0.16054zm3.4236-0.19472c0.72273-0.35835 1.4035-1.0107 1.8351-1.7586 0.13421-0.23255 0.286-0.61068 0.24509-0.61054-0.0166 3.6e-5 -0.1962 0.08359-0.39916 0.18566-0.36014 0.18109-0.95385 0.39346-1.2593 0.45042-0.0838 0.01559-0.16825 0.04955-0.18776 0.07539-0.0195 0.02584-0.0772 0.20295-0.12821 0.3936-0.11665 0.43592-0.29513 0.88976-0.48205 1.2258-0.14013 0.25191-0.14171 0.25942-0.0483 0.23066 0.0531-0.01631 0.24416-0.10292 0.42457-0.19235zm-2.3166-3.8478v-1.7245l-0.29725 0.02575c-0.39712 0.03449-0.90293 0.09969-0.92223 0.11898-0.0966 0.09663-0.16213 1.7749-0.0968 2.4807 0.0694 0.75054 0.0256 0.6844 0.48943 0.73768 0.21801 0.02504 0.48862 0.05133 0.60138 0.05828 0.11275 0.0071 0.20961 0.01613 0.21525 0.02014 5e-3 0.0045 0.0102-0.76864 0.0102-1.7171zm1.7621 1.611c0.17864-0.0311 0.18437-0.0368 0.215-0.21544 0.0725-0.42292 0.10963-1.3941 0.0744-1.9466-0.0433-0.67893-0.0825-0.99911-0.12564-1.0258-0.0371-0.0229-0.51195-0.08626-0.93155-0.12419l-0.29725-0.02682v1.6989c0 0.93437 8e-3 1.7071 0.0183 1.7172 0.023 0.02299 0.7998-0.0344 1.0467-0.07726zm-3.7765-0.90411c-0.0396-0.5481-0.0399-0.85174-2e-3 -1.405 0.027-0.38821 0.0424-0.71249 0.0342-0.72064-0.026-0.02611-0.65272 0.19663-0.95587 0.33969-0.60415 0.2851-1.0396 0.73017-1.0383 1.0611 8.9e-4 0.32744 0.36649 0.74143 0.90213 1.0229 0.28416 0.14932 1.0654 0.44552 1.0955 0.41536 8e-3 -8e-3 -9e-3 -0.32883-0.0364-0.71339zm5.1368 0.58404c0.96136-0.33224 1.5517-0.81831 1.5517-1.2776 0-0.49227-0.57536-0.9716-1.59-1.3246-0.20928-0.0728-0.3894-0.1235-0.40026-0.11264-0.0109 0.01087 8.9e-4 0.21172 0.0271 0.44634 0.0458 0.41732 0.025 1.9859-0.0302 2.2819-0.0136 0.07334-0.0153 0.13325-4e-3 0.13325 0.0117 0 0.21209-0.06594 0.44541-0.14661zm1.1814-3.0749c-0.2725-0.60735-0.78971-1.2522-1.3409-1.6719-0.25984-0.19783-0.99157-0.6007-1.091-0.6007-0.0352 0 0.0228 0.15614 0.16376 0.44076 0.12048 0.24327 0.27971 0.65654 0.35538 0.92233 0.0754 0.26487 0.14645 0.49094 0.15789 0.50237 0.0114 0.01141 0.21909 0.07646 0.46146 0.14453 0.43995 0.12354 0.98248 0.34629 1.2538 0.51479 0.0789 0.04901 0.14866 0.07592 0.15498 0.0597 6e-3 -0.01613-0.0455-0.15652-0.11531-0.31195zm-7.7404 0.18755c0.34115-0.18477 0.74551-0.34284 1.2027-0.47014l0.41059-0.11433 0.0974-0.35356c0.12011-0.43618 0.29424-0.88518 0.47795-1.2324 0.0768-0.14509 0.13092-0.27248 0.12031-0.28307-0.0358-0.03582-0.59967 0.23666-0.89517 0.43266-0.41466 0.27504-0.93826 0.79164-1.198 1.1821-0.22724 0.34152-0.5338 0.9617-0.47537 0.9617 0.018 0 0.13481-0.05534 0.25964-0.12292zm3.1202-0.7761c0.18516-0.0018 0.28474-0.02041 0.2981-0.05525 0.0111-0.02869 0.0151-0.44587 9e-3 -0.92696l-0.0111-0.87469-0.206 0.20604c-0.1133 0.11332-0.28492 0.34399-0.38138 0.51259-0.18657 0.32607-0.47409 1.0755-0.44336 1.1557 0.013 0.03386 0.0829 0.03876 0.23756 0.01675 0.12054-0.01711 0.34429-0.03253 0.49721-0.03413zm1.994-0.32106c-0.2031-0.61031-0.49468-1.1248-0.78729-1.3893l-0.17271-0.15608-0.0111 0.87945c-6e-3 0.48369-2e-3 0.90296 9e-3 0.93171 0.0133 0.03466 0.11376 0.05364 0.29809 0.05632 0.15292 0.0018 0.37951 0.01613 0.50355 0.03074 0.27579 0.03262 0.28329 0.01622 0.16048-0.35287zm8.0396-4.9749c0-1.3641-6e-3 -1.3982-0.26362-1.5329-0.11464-0.05997-0.92826-0.0647-9.1145-0.05374l-8.9886 0.01203-0.26808 0.26798-0.0238 2.5406h18.659zm-17.22 0.79974c-0.18533-0.08002-0.4361-0.32296-0.53874-0.52187-0.25993-0.5037-0.0384-1.157 0.48221-1.4219 0.29791-0.15159 0.69677-0.1447 0.98948 0.01711 0.36267 0.20048 0.55391 0.52845 0.55184 0.94638-3e-3 0.6062-0.45628 1.0463-1.0748 1.0435-0.14658-5.35e-4 -0.33108-0.02914-0.41001-0.06318zm0.6172-0.66013c0.3381-0.19972 0.1977-0.7097-0.19537-0.7097-0.29644 0-0.48995 0.3764-0.30816 0.59942 0.151 0.18525 0.31558 0.22131 0.50353 0.11028zm2.0264 0.64861c-0.22627-0.10278-0.42406-0.31128-0.54417-0.57364-0.0844-0.18433-0.0975-0.26286-0.08-0.48038 0.0741-0.92332 1.1802-1.3299 1.8246-0.67074 0.18766 0.19194 0.27033 0.39193 0.28908 0.69928 0.0271 0.44356-0.1778 0.79852-0.57512 0.99651-0.2642 0.13165-0.6607 0.14423-0.91441 0.02896zm0.68969-0.69253c0.18042-0.16245 0.16797-0.46932-0.0245-0.60414-0.33469-0.23444-0.77208 0.21138-0.53686 0.5472 0.12624 0.18023 0.39427 0.20742 0.56139 0.05694zm1.9237 0.66353c-0.77728-0.38733-0.77058-1.4979 0.0116-1.9162 0.23132-0.12371 0.7117-0.12371 0.94301 0 0.81251 0.43453 0.78863 1.5672-0.041 1.9454-0.25257 0.11513-0.64942 0.10246-0.91356-0.02914zm0.75368-0.67716c0.10964-0.103 0.14395-0.2578 0.0909-0.41001-0.13341-0.38272-0.73052-0.28806-0.73052 0.1158 0 0.36671 0.37759 0.54039 0.63963 0.29421zm1.7074 0.02495c-0.22807-0.09964-0.26391-0.34296-0.0801-0.54381l0.0845-0.09226h8.5066l0.10615 0.12615c0.13246 0.15742 0.13461 0.2872 7e-3 0.43533l-0.0989 0.11504-4.1959 9e-3c-3.5534 8e-3 -4.2163 1.8e-5 -4.3294-0.04937z" stroke-width=".041001"/><path d="m163.4 35.533v142.9" fill="none" stroke="#000" stroke-linecap="round" stroke-linejoin="round" style="paint-order:stroke markers fill"/><path d="m94.305 35.01v142.9" fill="none" stroke="#000" stroke-linecap="round" stroke-linejoin="round" style="paint-order:stroke markers fill"/><g transform="translate(-56.935 -63.351)" fill="#fff"><rect x="149.07" y="199" width="4.1269" height="6.7476" style="paint-order:stroke markers fill"/><rect x="324.31" y="156.69" width="4.1269" height="6.7476" style="paint-order:stroke markers fill"/><rect x="149.09" y="226.3" width="4.1269" height="6.7476" style="paint-order:stroke markers fill"/></g><g transform="translate(-56.935 -63.351)" stroke="#000" stroke-linecap="round" stroke-linejoin="round"><path d="m216.09 202.12h-70.5" fill="#f9f9f9" marker-end="url(#TriangleStart-6-2-0)" stroke-dasharray="2, 4" style="paint-order:fill markers stroke"/><path d="m97.579 217.74v12.248h116.89" fill="none" marker-start="url(#TriangleStart)" stroke-dasharray="2, 4" style="paint-order:fill markers stroke"/><path d="m287.33 160.24h72.785v-40.882h-72.438" fill="none" marker-end="url(#TriangleStart-9)" style="paint-order:fill markers stroke"/></g></svg>
